<svg width="255" height="255" viewBox="0 0 255 255" fill="none" xmlns="http://www.w3.org/2000/svg">
<path d="M166.215 125.44C185.545 125.44 201.215 109.77 201.215 90.4405C201.215 71.1105 185.545 55.4405 166.215 55.4405C165.341 55.4405 164.476 55.4725 163.618 55.5353C179.063 56.7596 191.215 69.6809 191.215 85.4405C191.215 102.009 177.783 115.44 161.215 115.44C145.455 115.44 132.534 103.289 131.31 87.8438C131.247 88.7011 131.215 89.5671 131.215 90.4405C131.215 109.77 146.885 125.44 166.215 125.44Z" fill="white"/>
<path d="M87.2149 125.44C67.8849 125.44 52.2149 109.77 52.2149 90.4405C52.2149 71.1105 67.8849 55.4405 87.2149 55.4405C88.0883 55.4405 88.9542 55.4724 89.8115 55.5353C74.3667 56.7596 62.2149 69.6809 62.2149 85.4405C62.2149 102.009 75.6463 115.44 92.2149 115.44C107.974 115.44 120.896 103.289 122.12 87.8438C122.183 88.7011 122.215 89.5671 122.215 90.4405C122.215 109.77 106.545 125.44 87.2149 125.44Z" fill="white"/>
<path d="M125.422 120.818C126.157 121.302 128.273 121.302 129.007 120.818L136.178 115.328C136.836 113.998 135.869 112.44 134.386 112.44H120.044C118.561 112.44 117.593 113.998 118.251 115.328L125.422 120.818Z" fill="white"/>
<path d="M122.215 85.4405C122.215 90.9633 117.738 95.4405 112.215 95.4405C106.692 95.4405 102.215 90.9633 102.215 85.4405C102.215 79.9176 106.692 75.4405 112.215 75.4405C117.738 75.4405 122.215 79.9176 122.215 85.4405Z" fill="white"/>
<path d="M151.215 85.4405C151.215 90.9633 146.738 95.4405 141.215 95.4405C135.692 95.4405 131.215 90.9633 131.215 85.4405C131.215 79.9176 135.692 75.4405 141.215 75.4405C146.738 75.4405 151.215 79.9176 151.215 85.4405Z" fill="white"/>
<path d="M107.473 63.3755C109.401 64.9268 107.348 67.9085 105.211 66.6611L74.9908 49.0248C73.986 48.4384 73.6918 47.1216 74.3514 46.1634L77.3091 41.8668C77.9687 40.9086 79.3038 40.7134 80.2102 41.4426L107.473 63.3755Z" fill="white"/>
<path d="M147.444 66.6593C145.306 67.9066 143.254 64.9248 145.182 63.3736L172.445 41.4418C173.352 40.7126 174.687 40.9079 175.346 41.8662L178.304 46.1629C178.963 47.1211 178.669 48.4379 177.664 49.0242L147.444 66.6593Z" fill="white"/>
<path fill-rule="evenodd" clip-rule="evenodd" d="M197.382 106.381C205.353 115.095 210.215 126.7 210.215 139.44C210.215 153.132 204.599 165.513 195.545 174.404C192.141 181.904 187.538 188.745 181.981 194.682C204.32 186.281 220.215 164.717 220.215 139.44C220.215 122.099 212.733 106.504 200.821 95.7093C200.249 99.5 199.068 103.091 197.382 106.381Z" fill="white"/>
<path fill-rule="evenodd" clip-rule="evenodd" d="M52.6088 95.7093C40.6968 106.504 33.2149 122.099 33.2149 139.44C33.2149 165.285 49.8325 187.249 72.9658 195.229C67.5948 189.604 63.0896 183.146 59.6643 176.067C49.5724 167.092 43.2149 154.009 43.2149 139.44C43.2149 126.7 48.0771 115.095 56.0473 106.381C54.3615 103.091 53.1812 99.5 52.6088 95.7093Z" fill="white"/>
<path d="M192.215 143.44C192.215 134.578 190.441 126.13 187.23 118.432C190.106 116.269 192.639 113.673 194.73 110.74C199.525 120.623 202.215 131.718 202.215 143.44C202.215 162.82 194.864 180.484 182.799 193.794C178.674 193.261 174.403 192.786 170.003 192.372C183.617 180.457 192.215 162.953 192.215 143.44Z" fill="white"/>
<path d="M84.4267 192.372C70.8128 180.457 62.2149 162.953 62.2149 143.44C62.2149 134.793 63.9034 126.54 66.9688 118.994C64.0517 116.922 61.4658 114.414 59.3061 111.565C54.7573 121.239 52.2149 132.043 52.2149 143.44C52.2149 162.82 59.5655 180.484 71.6307 193.794C75.7557 193.261 80.0272 192.786 84.4267 192.372Z" fill="white"/>
<path fill-rule="evenodd" clip-rule="evenodd" d="M243.048 213.476C222.63 206.362 178.662 201.44 127.715 201.44C75.5871 201.44 30.7657 206.593 11 213.974C20.7288 200.602 69.0587 190.44 127.215 190.44C184.647 190.44 232.496 200.35 243.048 213.476Z" fill="white"/>
<path d="M125.552 69.202C126.453 69.6988 127.547 69.6988 128.448 69.202L142.968 61.2C144.04 60.609 143.621 58.9779 142.396 58.9779C140.794 58.9779 130.905 63.7016 127 63.7016C123.095 63.7016 112.67 58.9779 111.604 58.9779C110.379 58.9779 109.96 60.609 111.032 61.2L125.552 69.202Z" fill="white"/>
<path d="M134.615 166.464C134.615 178.871 124.852 188.929 112.808 188.929C100.764 188.929 91 178.871 91 166.464C91 154.058 100.764 144 112.808 144C124.852 144 134.615 154.058 134.615 166.464Z" fill="white"/>
<path d="M163 166.464C163 178.871 153.236 188.929 141.192 188.929C129.148 188.929 119.385 178.871 119.385 166.464C119.385 154.058 129.148 144 141.192 144C153.236 144 163 154.058 163 166.464Z" fill="white"/>
<path fill-rule="evenodd" clip-rule="evenodd" d="M112.831 207.143H112.784C112.792 207.143 112.8 207.143 112.808 207.143C112.815 207.143 112.823 207.143 112.831 207.143ZM97.2658 195C93.3909 187.657 91 177.582 91 166.464H163C163 177.582 160.609 187.657 156.734 195H97.2658ZM141.216 207.143C141.208 207.143 141.2 207.143 141.192 207.143C141.185 207.143 141.177 207.143 141.169 207.143H141.216Z" fill="white"/>
</svg>
